<?xml version="1.0" encoding="utf-8"?>
<!-- Generator: Adobe Illustrator 24.1.2, SVG Export Plug-In . SVG Version: 6.00 Build 0)  -->
<svg version="1.2" baseProfile="tiny" id="Layer_1" xmlns="http://www.w3.org/2000/svg" xmlns:xlink="http://www.w3.org/1999/xlink"
	 x="0px" y="0px" viewBox="0 0 240 120" overflow="visible" xml:space="preserve">
<g>
	<path fill="#FFFFFF" d="M126.9,9.2v24.4c0,1,1.3,1.5,4,1.5c0.9,0,1.5-0.2,1.6-0.6c0-0.2,0-0.5,0-1l0-16.3l-0.4-8.1l4.5,0
		c1.3,0,1.9-1.2,1.9-3.6c0-0.8-0.8-1.2-2.3-1.2h-14.6c-0.9,0-1.4,0.8-1.4,2.3c0,1,0.1,1.6,0.4,2c0.2,0.3,0.6,0.5,1.2,0.5H126.9z"/>
	<path fill="#FFFFFF" d="M141.8,34.7c0.7,0,1.1-0.1,1.2-0.2c0.1-0.2,0.2-0.5,0.2-1.1l0-7.4h3.7v7.4c0,0.9,1,1.3,3,1.3
		c0.6,0,1-0.1,1.2-0.2c0.1-0.2,0.2-0.5,0.2-1.1V22.5l-0.4-8c-0.1-0.8-0.8-1.2-2.3-1.2c-0.7,0-1.1,0.1-1.3,0.2
		c-0.2,0.1-0.3,0.5-0.3,1v7.8h-3.7l-0.4-7.8c0-0.8-0.8-1.2-2.3-1.2c-0.6,0-1.1,0.1-1.3,0.2c-0.2,0.1-0.3,0.5-0.3,1v18.9
		C138.8,34.3,139.8,34.7,141.8,34.7z"/>
	<path fill="#FFFFFF" d="M163.9,34.3c0.6,0,1-0.2,1.2-0.6c0.2-0.4,0.3-0.9,0.3-1.6c0-0.7-0.1-1.1-0.3-1.3c-0.2-0.2-0.6-0.3-1.1-0.3
		h-5.9v-5.1h4.9c0.4,0,0.7-0.1,0.9-0.3c0.2-0.2,0.3-0.5,0.3-0.7c0-0.3,0-0.8,0-1.5c0-0.9-0.5-1.3-1.4-1.3h-4.8l-0.2-4.1h5.6
		c0.5,0,0.8-0.1,1.1-0.4c0.3-0.3,0.4-0.6,0.4-0.9c0-0.3,0.1-0.7,0.1-1.3c0-0.8-0.5-1.2-1.5-1.2h-9.7v20l0.5,0.6H163.9z"/>
	<path fill="#FFFFFF" d="M133.4,57.2c-2-0.9-3.5-1.8-4.4-2.7c-1-0.9-1.4-1.8-1.4-2.9c0-1.1,0.3-1.9,0.8-2.5c0.6-0.6,1.3-0.9,2.1-0.9
		s1.9,0.2,3.1,0.7s1.9,0.7,2.2,0.7s0.5,0,0.5-0.1c0.3-0.2,0.7-1,1.2-2.5c0-0.3,0.1-0.6,0.1-0.7c0.1-0.4-0.4-0.8-1.3-1.2
		c-1.8-0.9-3.6-1.3-5.4-1.3c-3,0-5.3,0.7-6.9,2.1c-1.6,1.4-2.3,3.6-2.3,6.5c0,1.7,0.7,3.3,2,4.9c1.4,1.6,3,2.9,4.8,3.8
		c1.8,1,3.1,1.8,3.9,2.5s1.2,1.6,1.2,2.7s-0.2,2-0.7,2.7c-0.5,0.7-1.4,1-2.9,1s-3.2-0.8-5.2-2.3c-0.4-0.2-0.7-0.4-0.9-0.4
		s-0.4,0-0.6,0.1c-0.2,0.1-0.6,0.4-1.2,1c-0.6,0.6-0.9,1.1-0.9,1.5s0.3,0.9,0.8,1.6c2.2,2.4,5.3,3.6,9.5,3.6c5.5,0,8.3-3.3,8.3-9.8
		c0-2-0.5-3.5-1.6-4.7C137.1,59.4,135.5,58.3,133.4,57.2z"/>
	<path fill="#FFFFFF" d="M140.9,53.6v19.8c0,0.9,0.8,1.4,2.5,1.4c0.8,0,1.3-0.2,1.4-0.5c0.1-0.2,0.1-0.5,0.1-0.9v-6.6
		c1.1,0,2.1-0.1,2.9-0.2s1.6-0.4,2.4-0.8c1.7-0.9,2.6-2.8,2.6-5.9c0-2.3-0.5-3.9-1.5-5c-1-1.1-2.8-1.6-5.3-1.6
		C144.3,53.3,142.7,53.4,140.9,53.6z M147.9,57.8c0.2,0.5,0.3,1.1,0.3,1.9c0,0.7-0.1,1.3-0.2,1.6c-0.1,0.4-0.3,0.6-0.6,0.8
		c-0.3,0.2-0.6,0.3-0.9,0.3c-0.3,0-0.7,0-1.1,0c-0.4,0-0.6,0-0.6-0.1v-5.1c0-0.1,0.1-0.2,0.4-0.2c0.2,0,0.9,0,2,0
		C147.5,57.1,147.7,57.3,147.9,57.8z"/>
	<path fill="#FFFFFF" d="M161.5,71.7c0-0.7-0.4-1.1-1.2-1.2h-0.5l-0.3-13h0.4c0.8,0,1.2-0.9,1.2-2.6c0-0.8-0.5-1.2-1.4-1.2h-4.7
		c-0.8,0-1.2,0.6-1.2,1.8c0,0.8,0.1,1.3,0.3,1.6c0.2,0.2,0.5,0.4,1,0.4h0.5v13h-0.7c-0.7,0-1.1,0.6-1.1,1.9s0.4,1.9,1.2,1.9h5
		C160.9,74.3,161.4,73.4,161.5,71.7z"/>
	<path fill="#FFFFFF" d="M175.3,74.7c0.9,0,1.3-0.2,1.3-0.7c0-0.2-1.2-3.1-3.6-8.5c1.7-1.2,2.5-3.2,2.5-6c0-2.2-0.5-3.8-1.5-4.8
		s-2.8-1.4-5.4-1.4c-1.5,0-3.2,0.1-5,0.4v19.7c0,0.9,0.9,1.4,2.6,1.4c0.7,0,1.1-0.1,1.2-0.2c0.1-0.2,0.2-0.6,0.2-1.2v-6.6
		c0.6,0,1.1,0,1.4,0l3,6.8C172.2,74.3,173.4,74.7,175.3,74.7z M170.2,61.9c-0.5,0.4-1.3,0.5-2.6,0.5c-0.1,0-0.1,0-0.1-0.1v-5.1
		c0-0.1,0.1-0.2,0.4-0.2c0.2,0,0.9,0,2,0c0.2,0,0.5,0.2,0.7,0.7c0.2,0.4,0.3,1.2,0.3,2.2S170.7,61.6,170.2,61.9z"/>
	<path fill="#FFFFFF" d="M186.2,71.7c0-0.7-0.4-1.1-1.2-1.2h-0.5l-0.3-13h0.4c0.8,0,1.2-0.9,1.2-2.6c0-0.8-0.5-1.2-1.4-1.2h-4.7
		c-0.8,0-1.2,0.6-1.2,1.8c0,0.8,0.1,1.3,0.3,1.6c0.2,0.2,0.5,0.4,1,0.4h0.5v13h-0.7c-0.7,0-1.1,0.6-1.1,1.9s0.4,1.9,1.2,1.9h5
		C185.6,74.3,186.1,73.4,186.2,71.7z"/>
	<path fill="#FFFFFF" d="M188.4,57.4h3.1v16c0,0.9,1,1.3,3,1.3c0.7,0,1.1-0.1,1.2-0.2s0.2-0.5,0.2-1.1V62.5l-0.3-5.1h2.7
		c1,0,1.5-0.9,1.5-2.6c0-0.8-0.6-1.2-1.8-1.2h-9.8c-0.8,0-1.2,0.6-1.2,1.8c0,0.8,0.1,1.3,0.3,1.6C187.6,57.3,187.9,57.4,188.4,57.4z
		"/>
	<path fill="#FFFFFF" d="M217.8,74.7c2.8,0,4.7-0.8,5.7-2.3s1.6-4.4,1.6-8.5c0-4.1-0.5-6.9-1.5-8.4c-1-1.5-2.9-2.2-5.7-2.2
		c-2.8,0-4.7,0.7-5.7,2.2c-1,1.5-1.5,4.3-1.5,8.4c0,4.1,0.5,7,1.6,8.5S215,74.7,217.8,74.7z M216,57.9c0.4-0.8,1.5-1.2,3.3-1.2
		c0.6,0,1,2.5,1,7.4c0,1.8,0,3.1-0.1,3.9s-0.2,1.5-0.5,2s-0.7,0.9-1.1,1c-0.5,0.1-1.2,0.1-2.2,0.1c-0.2,0-0.4-0.2-0.5-0.5
		c-0.1-0.3-0.2-1-0.3-2.1s-0.1-2.9-0.1-5.5C215.4,60.4,215.6,58.7,216,57.9z"/>
	<path fill="#FFFFFF" d="M236.7,61.5h-5.3l-0.2-4.1h5.3c0.8,0,1.3-0.2,1.5-0.6c0.2-0.4,0.3-1.1,0.3-2.2c0-0.3-0.1-0.6-0.3-0.8
		c-0.2-0.2-0.7-0.3-1.4-0.3h-9.4V74c0,0.2,0.3,0.4,1,0.5s1.3,0.2,2.1,0.2c0.7,0,1.1-0.1,1.2-0.4c0-0.1,0-0.2,0-0.4v-8.6h5
		c0.7,0,1.1-0.2,1.3-0.5c0.2-0.4,0.3-1.1,0.3-2.1C238.1,61.9,237.6,61.5,236.7,61.5z"/>
	<path fill="#FFFFFF" d="M133.4,97.2c-2-0.9-3.5-1.8-4.4-2.7c-1-0.9-1.4-1.8-1.4-2.9s0.3-1.9,0.8-2.5c0.6-0.6,1.3-0.9,2.1-0.9
		s1.9,0.2,3.1,0.7c1.2,0.4,1.9,0.7,2.2,0.7s0.5,0,0.5-0.1c0.3-0.2,0.7-1,1.2-2.5c0-0.3,0.1-0.6,0.1-0.7c0.1-0.4-0.4-0.8-1.3-1.2
		c-1.8-0.9-3.6-1.3-5.4-1.3c-3,0-5.3,0.7-6.9,2.1c-1.6,1.4-2.3,3.6-2.3,6.5c0,1.7,0.7,3.3,2,4.9c1.4,1.6,3,2.9,4.8,3.8
		c1.8,1,3.1,1.8,3.9,2.5s1.2,1.6,1.2,2.7s-0.2,2-0.7,2.7c-0.5,0.7-1.4,1-2.9,1s-3.2-0.8-5.2-2.3c-0.4-0.2-0.7-0.4-0.9-0.4
		s-0.4,0-0.6,0.1c-0.2,0.1-0.6,0.4-1.2,1c-0.6,0.6-0.9,1.1-0.9,1.5s0.3,0.9,0.8,1.6c2.2,2.4,5.3,3.6,9.5,3.6c5.5,0,8.3-3.3,8.3-9.8
		c0-2-0.5-3.5-1.6-4.7C137.1,99.4,135.5,98.3,133.4,97.2z"/>
	<path fill="#FFFFFF" d="M150.6,93.3c-0.7,0-1.1,0.1-1.3,0.2c-0.2,0.1-0.3,0.5-0.3,1v7.8h-3.7l-0.4-7.8c0-0.8-0.8-1.2-2.3-1.2
		c-0.6,0-1.1,0.1-1.3,0.2s-0.3,0.5-0.3,1v18.9c0,0.9,1,1.4,3,1.4c0.7,0,1.1-0.1,1.2-0.2c0.1-0.2,0.2-0.5,0.2-1.1l0-7.4h3.7v7.4
		c0,0.9,1,1.3,3,1.3c0.6,0,1-0.1,1.2-0.2c0.1-0.2,0.2-0.5,0.2-1.1v-10.9l-0.4-8C152.8,93.7,152.1,93.3,150.6,93.3z"/>
	<path fill="#FFFFFF" d="M162.9,93.3c-2.8,0-4.7,0.7-5.7,2.2c-1,1.5-1.5,4.3-1.5,8.4s0.5,7,1.6,8.5s2.9,2.3,5.7,2.3s4.7-0.8,5.7-2.3
		s1.6-4.4,1.6-8.5s-0.5-6.9-1.5-8.4C167.6,94,165.7,93.3,162.9,93.3z M165.3,108c-0.1,0.8-0.2,1.5-0.5,2c-0.3,0.5-0.7,0.9-1.1,1
		c-0.5,0.1-1.2,0.1-2.2,0.1c-0.2,0-0.4-0.2-0.5-0.5c-0.1-0.3-0.2-1-0.3-2.1s-0.1-2.9-0.1-5.5c0-2.6,0.2-4.4,0.6-5.2
		c0.4-0.8,1.5-1.2,3.3-1.2c0.6,0,1,2.5,1,7.4C165.4,105.9,165.3,107.2,165.3,108z"/>
	<path fill="#FFFFFF" d="M177.2,93.3c-1.6,0-3.2,0.1-5,0.4v19.8c0,0.9,0.8,1.4,2.5,1.4c0.8,0,1.3-0.2,1.4-0.5
		c0.1-0.2,0.1-0.5,0.1-0.9v-6.6c1.1,0,2.1-0.1,2.9-0.2c0.8-0.1,1.6-0.4,2.4-0.8c1.7-0.9,2.6-2.8,2.6-5.9c0-2.3-0.5-3.9-1.5-5
		C181.6,93.8,179.8,93.3,177.2,93.3z M179.4,101.3c-0.1,0.4-0.3,0.6-0.6,0.8c-0.3,0.2-0.6,0.3-0.9,0.3c-0.3,0-0.7,0-1.1,0
		c-0.4,0-0.6,0-0.6-0.1v-5.1c0-0.1,0.1-0.2,0.4-0.2c0.2,0,0.9,0,2,0c0.2,0,0.5,0.3,0.7,0.8c0.2,0.5,0.3,1.1,0.3,1.9
		S179.5,101,179.4,101.3z"/>
	<path fill="#FFFFFF" d="M190.4,93.3c-1.6,0-3.2,0.1-5,0.4v19.8c0,0.9,0.8,1.4,2.5,1.4c0.8,0,1.3-0.2,1.4-0.5
		c0.1-0.2,0.1-0.5,0.1-0.9v-6.6c1.1,0,2.1-0.1,2.9-0.2c0.8-0.1,1.6-0.4,2.4-0.8c1.7-0.9,2.6-2.8,2.6-5.9c0-2.3-0.5-3.9-1.5-5
		C194.8,93.8,193,93.3,190.4,93.3z M192.6,101.3c-0.1,0.4-0.3,0.6-0.6,0.8c-0.3,0.2-0.6,0.3-0.9,0.3c-0.3,0-0.7,0-1.1,0
		c-0.4,0-0.6,0-0.6-0.1v-5.1c0-0.1,0.1-0.2,0.4-0.2c0.2,0,0.9,0,2,0c0.2,0,0.5,0.3,0.7,0.8c0.2,0.5,0.3,1.1,0.3,1.9
		S192.7,101,192.6,101.3z"/>
	<path fill="#FFFFFF" d="M204.8,110.5h-0.5l-0.3-13h0.4c0.8,0,1.2-0.9,1.2-2.6c0-0.8-0.5-1.2-1.4-1.2h-4.7c-0.8,0-1.2,0.6-1.2,1.8
		c0,0.8,0.1,1.3,0.3,1.6c0.2,0.2,0.5,0.4,1,0.4h0.5v13h-0.7c-0.7,0-1.1,0.6-1.1,1.9s0.4,1.9,1.2,1.9h5c1,0,1.5-0.9,1.6-2.6
		C206,110.9,205.6,110.5,204.8,110.5z"/>
	<path fill="#FFFFFF" d="M219.9,93.5c-0.2-0.1-0.7-0.2-1.3-0.2c-1.5,0-2.3,0.4-2.3,1.2l0.2,9.6l-3.9-9.3c-0.3-0.5-0.6-0.8-0.9-1
		c-0.3-0.2-0.5-0.4-0.7-0.4c-0.2,0-0.4,0-0.7,0c-1.5,0-2.2,0.4-2.2,1.2v18.8c0,0.9,1,1.4,3,1.4c0.7,0,1.1-0.1,1.2-0.2
		c0.1-0.2,0.2-0.5,0.2-1.1V104l4.6,9.5c0.3,0.8,1.1,1.2,2.4,1.2c0.3,0,0.6,0,0.8,0c0.3-0.1,0.5-0.5,0.5-1.3v-10.9l-0.4-8
		C220.3,94,220.1,93.6,219.9,93.5z"/>
	<path fill="#FFFFFF" d="M235.2,104.3c-0.3-0.2-0.8-0.3-1.5-0.3c-1.3,0-1.9,0.4-1.9,1.2v5.5l-1.8,0.2c-1,0-1.6-0.4-1.8-1.2
		c-0.3-0.8-0.4-2.6-0.4-5.4c0-2.8,0.1-4.6,0.3-5.6c0.2-1,0.8-1.4,1.6-1.4c0.9,0,1.7,0.1,2.4,0.2s1.3,0.2,1.5,0.2s0.5-0.1,0.6-0.3
		c0.2-0.2,0.4-0.6,0.6-1.2c0.2-0.6,0.3-0.9,0.3-1c0-1.2-1.5-1.8-4.6-1.8s-5.1,0.7-6.1,2.2c-1,1.5-1.5,4.3-1.5,8.5
		c0,4.2,0.5,7,1.6,8.5c1,1.5,2.9,2.3,5.7,2.3c1.7,0,3.6-0.1,6-0.4v-3.6l-0.4-5.3C235.7,104.8,235.6,104.4,235.2,104.3z"/>
	<path fill="#FFFFFF" d="M72.3,1C48.8,1,29.6,20.4,29.6,44.1c0,1.7,0,3.2,0,4.6c0,5.8,0,7.6,0,7.5c0,1.4,0,3.1,0,5
		c0,8.1-6.5,14.5-14.3,14.5c-7.8,0-14.1-6.1-14.3-14C1.2,93.3,26.7,119,58,119c31.5,0,57-25.7,57-57.6V44.1
		C114.9,20.4,95.8,1,72.3,1z M76.1,58.3c0,5.1-4.1,9.2-9.1,9.2c-5,0-9.1-4.1-9.1-9.2V45.4c0-5.1,4.1-9.2,9.1-9.2s9.1,4.1,9.1,9.2
		V58.3z M102.7,58.3c0,5.1-4.1,9.2-9.1,9.2s-9.1-4.1-9.1-9.2V45.4c0-5.1,4.1-9.2,9.1-9.2c5,0,9.1,4.1,9.1,9.2V58.3z"/>
</g>
</svg>
